<svg height="512" viewBox="0 0 58 58" width="512" xmlns="http://www.w3.org/2000/svg"><g id="081---Male-User" fill="none"><circle id="Oval" cx="29" cy="29" fill="#3d324c" r="29"/><path id="Shape" d="m15.26 24c-.8424656-2.270388-1.2889489-4.6685447-1.32-7.09 0-6.6 6.2-12.9 13.71-12.9s10.44 5.1 10.44 5.1h.32s6.53.3 6.53 8.7c-.0100465 2.2100266-.5629177 4.3837377-1.61 6.33l-2.33 1.86h-23z" fill="#805333"/><path id="Shape" d="m17.14 24c-.7314647-2.2966872-1.1157057-4.6897671-1.14-7.1 0-6.6 5.38-12.9 11.89-12.9 3.7029191-.05805127 7.1469544 1.89356871 9 5.1h.28s5.66.3 5.66 8.7c.0003328 2.1868257-.4774923 4.347278-1.4 6.33l-2 1.87h-19.91z" fill="#a56a43"/><path id="Shape" d="m40.32 25.81c.1355426-1.1348145 1.1651271-1.9450527 2.3-1.81 1.78-.27 1.53 3.32 1.18 5.06-.2117094 2.1960681-1.6489904 4.0827417-3.71 4.87h-22.3c-2.0580884-.7911584-3.4937549-2.6757125-3.71-4.87-.35-1.75-.59-5.33 1.18-5.06 2.06 0 2.15 1.57 2.15 1.57z" fill="#f9c795"/><path id="Shape" d="m41.32 50.74c-7.6556566 4.3751966-17.0543434 4.3751966-24.71 0 1.5151212-1.1610511 2.9609308-2.4098566 4.33-3.74v-6.68h16v6.68c1.3845912 1.332367 2.8471716 2.581237 4.38 3.74z" fill="#fdd7ad"/><path id="Shape" d="m36.94 40.32v2.8c-2.94 2.88-3.07 5.68-6.3 5.68h-3.4c-3.23 0-3.4-2.76-6.3-5.68v-2.8z" fill="#f9c795"/><path id="Shape" d="m17.33 22.69c.1-2.15 1.77-3.09 4.12-3.09h5.22s6.85-.6 9.79-5.4c0 0 3.22 1.78 3.82 10.91.1 1.57.09 3.17.09 2.9-.2063501.9846294-.3301135 1.9847714-.37 2.99 0 3.09.85 5.73-2.55 8.81s-3.4 6.19-6.81 6.19h-3.4c-3.41 0-3.41-3.08-6.81-6.17-4.05-3.67-2-6.53-2.75-10.92.09.85-.45-4.37-.35-6.22z" fill="#fdd7ad"/></g></svg>